<?xml version="1.0" standalone="no"?>
<!DOCTYPE svg PUBLIC "-//W3C//DTD SVG 20010904//EN"
 "http://www.w3.org/TR/2001/REC-SVG-20010904/DTD/svg10.dtd">
<svg version="1.0" xmlns="http://www.w3.org/2000/svg"
 width="260.000000pt" height="260.000000pt" viewBox="0 0 260.000000 260.000000"
 preserveAspectRatio="xMidYMid meet">
<metadata>
Created by potrace 1.11, written by Peter Selinger 2001-2013
</metadata>
<g transform="translate(0.000000,260.000000) scale(0.100000,-0.100000)"
fill="#000000" stroke="none">
<path d="M0 1300 l0 -1300 1300 0 1300 0 0 1300 0 1300 -1300 0 -1300 0 0
-1300z m1504 1092 c160 -87 236 -353 236 -821 0 -356 -36 -575 -116 -702 -65
-104 -193 -154 -278 -110 -22 11 -42 19 -44 16 -3 -2 0 -60 6 -128 l11 -125
85 -171 c48 -94 81 -171 74 -171 -10 0 -126 31 -505 137 l-91 25 44 92 44 91
10 280 c5 154 17 493 25 752 l15 473 -84 107 c-60 77 -80 110 -71 115 14 9
440 163 470 171 39 11 120 -5 169 -31z"/>
<path d="M1340 2333 c-156 -54 -327 -118 -334 -124 -5 -4 17 -41 49 -81 l57
-73 -6 -100 c-3 -55 -16 -404 -27 -775 l-21 -675 -25 -48 c-13 -27 -21 -52
-18 -55 7 -8 298 -91 303 -87 2 2 -17 43 -42 92 l-44 89 -18 218 c-10 129 -13
220 -8 225 5 5 23 12 40 15 28 6 33 3 57 -33 49 -73 77 -93 124 -88 134 14
206 197 222 565 19 416 -25 726 -122 855 -49 64 -132 99 -187 80z m-16 -223
c14 -5 35 -24 46 -42 54 -89 -10 -477 -94 -575 -27 -30 -37 -35 -58 -30 -48
13 -52 43 -39 305 11 209 15 242 34 282 12 25 33 51 47 57 30 15 32 15 64 3z"/>
<path d="M1287 2013 c-4 -6 -9 -47 -12 -90 -3 -43 -8 -109 -11 -148 -3 -41 -1
-66 4 -60 9 9 22 86 37 210 6 51 -6 108 -18 88z"/>
</g>
</svg>
